<svg xmlns="http://www.w3.org/2000/svg" viewBox="0 0 331.6 331.6"><title>Asset 4</title><g id="Layer_2" data-name="Layer 2"><g id="Layer_1-2" data-name="Layer 1"><path d="M165.8,0A165.8,165.8,0,1,0,331.6,165.8,165.8,165.8,0,0,0,165.8,0ZM119.17,241.9h-33v-106h33Zm-16.69-119c-10.45,0-17.41-7.38-17.15-16.48-.21-9.54,6.72-16.69,17.41-16.69s17.3,7.15,17.51,16.69C120.25,115.48,113.29,122.86,102.48,122.86Zm143.79,119h-33V183.14c0-13.66-4.77-23-16.69-23-9.1,0-14.53,6.29-16.71,12.36a23.12,23.12,0,0,0-1.29,8.24V241.9h-33V169.69c0-13.22-.44-24.48-.88-33.82h28.64l1.51,14.53h.65a38.83,38.83,0,0,1,32.75-16.92c21.68,0,38,14.33,38,45.53Z"/></g></g></svg>