<svg xmlns="http://www.w3.org/2000/svg" viewBox="0 0 331.6 331.6"><title>Asset 5</title><g id="Layer_2" data-name="Layer 2"><g id="Layer_1-2" data-name="Layer 1"><path d="M269.4,112.94l-84,84a27.72,27.72,0,0,1-38.9.3l-.17-.13-.26-.3L62.2,112.94c-.05.52-.07,1-.07,1.58V217.07A16.74,16.74,0,0,0,78.85,233.8h173.9a16.74,16.74,0,0,0,16.72-16.73V114.51C269.47,114,269.45,113.46,269.4,112.94ZM165.8,194.05a16.66,16.66,0,0,0,11.82-4.9l86.7-86.69-.59-.54a16.44,16.44,0,0,0-9.36-4c-.53,0-1.07-.08-1.61-.08H78.84c-.54,0-1.08,0-1.61.08l-.9.11c-.45.07-.89.15-1.33.26a16.25,16.25,0,0,0-3.77,1.39l-.78.43A15.07,15.07,0,0,0,68,101.79c-.25.22-.5.44-.74.67l86.7,86.7A16.63,16.63,0,0,0,165.8,194.05Zm103.6-81.11-84,84a27.72,27.72,0,0,1-38.9.3l-.17-.13-.26-.3L62.2,112.94c-.05.52-.07,1-.07,1.58V217.07A16.74,16.74,0,0,0,78.85,233.8h173.9a16.74,16.74,0,0,0,16.72-16.73V114.51C269.47,114,269.45,113.46,269.4,112.94ZM165.8,194.05a16.66,16.66,0,0,0,11.82-4.9l86.7-86.69-.59-.54a16.44,16.44,0,0,0-9.36-4c-.53,0-1.07-.08-1.61-.08H78.84c-.54,0-1.08,0-1.61.08l-.9.11c-.45.07-.89.15-1.33.26a16.25,16.25,0,0,0-3.77,1.39l-.78.43A15.07,15.07,0,0,0,68,101.79c-.25.22-.5.44-.74.67l86.7,86.7A16.63,16.63,0,0,0,165.8,194.05Zm0-194A165.8,165.8,0,1,0,331.6,165.8,165.8,165.8,0,0,0,165.8,0ZM280.47,217.07a27.76,27.76,0,0,1-27.72,27.73H78.85a27.76,27.76,0,0,1-27.72-27.73V114.53A27.79,27.79,0,0,1,53.21,104a27.4,27.4,0,0,1,1.71-3.43l.32-.52c.3-.48.61-1,.93-1.42.22-.31.44-.6.67-.9s.67-.85,1-1.26c.19-.23.39-.44.59-.66l.6-.64.37-.37.19-.18.13-.12c.41-.39.83-.76,1.25-1.12a28.11,28.11,0,0,1,13.41-6.17l.78-.12c.65-.08,1.3-.15,2-.18a4.89,4.89,0,0,1,.54,0q.57,0,1.14,0H252.76q.59,0,1.17,0c.21,0,.41,0,.62,0,.59,0,1.18.1,1.76.17l.88.13a28.1,28.1,0,0,1,13.94,6.62l.78.72.63.62.77.81a30.35,30.35,0,0,1,2.07,2.58c.18.25.36.51.52.77s.31.48.46.72l.42.68a25.42,25.42,0,0,1,1.61,3.27,27.47,27.47,0,0,1,2.08,10.56ZM185.4,196.93a27.72,27.72,0,0,1-38.9.3l-.17-.13-.26-.3L62.2,112.94c-.05.52-.07,1-.07,1.58V217.07A16.74,16.74,0,0,0,78.85,233.8h173.9a16.74,16.74,0,0,0,16.72-16.73V114.51c0-.53,0-1.05-.07-1.57Zm-19.6-2.88a16.66,16.66,0,0,0,11.82-4.9l86.7-86.69-.59-.54a16.44,16.44,0,0,0-9.36-4c-.53,0-1.07-.08-1.61-.08H78.84c-.54,0-1.08,0-1.61.08l-.9.11c-.45.07-.89.15-1.33.26a16.25,16.25,0,0,0-3.77,1.39l-.78.43A15.07,15.07,0,0,0,68,101.79c-.25.22-.5.44-.74.67l86.7,86.7A16.63,16.63,0,0,0,165.8,194.05Zm103.6-81.11-84,84a27.72,27.72,0,0,1-38.9.3l-.17-.13-.26-.3L62.2,112.94c-.05.52-.07,1-.07,1.58V217.07A16.74,16.74,0,0,0,78.85,233.8h173.9a16.74,16.74,0,0,0,16.72-16.73V114.51C269.47,114,269.45,113.46,269.4,112.94ZM165.8,194.05a16.66,16.66,0,0,0,11.82-4.9l86.7-86.69-.59-.54a16.86,16.86,0,0,0-9.36-4c-.53,0-1.07-.08-1.61-.08H78.84c-.54,0-1.08,0-1.61.08l-.9.11c-.45.07-.89.16-1.33.26a17.22,17.22,0,0,0-3.77,1.39l-.78.43A17.8,17.8,0,0,0,68,101.79c-.25.22-.5.44-.74.67l86.7,86.7A16.63,16.63,0,0,0,165.8,194.05Z"/></g></g></svg>