<svg xmlns="http://www.w3.org/2000/svg" viewBox="0 0 331.6 331.6"><title>Asset 6</title><g id="Layer_2" data-name="Layer 2"><g id="Layer_1-2" data-name="Layer 1"><path d="M165.8,0A165.8,165.8,0,1,0,331.6,165.8,165.8,165.8,0,0,0,165.8,0Zm51.29,275.48h0l-19.8,5.46a26.51,26.51,0,0,1-7,1c-27,.31-58.25-37.07-72.47-88.76l-6-21.44C97.6,120.17,105.29,72,128.65,58.4a27.65,27.65,0,0,1,6.63-2.81l19.8-5.44a13.35,13.35,0,0,1,16.4,9.37l10.88,39.42a13.41,13.41,0,0,1-9.38,16.4l-21.95,6c-7,2-13.06,3-9.59,15.63L161,207.85c3.47,12.61,9.09,10.48,16.22,8.51l21.95-6.05a13.39,13.39,0,0,1,16.41,9.38l10.85,39.39A13.37,13.37,0,0,1,217.09,275.48Z"/></g></g></svg>